<svg width="146" height="40" viewBox="0 0 146 40" fill="none" xmlns="http://www.w3.org/2000/svg">
<rect y="0.5" width="83" height="39" rx="19.5" fill="url(#paint0_linear_132_384)"/>
<path d="M10.7216 28.5V11.0455H13.8835V25.8494H21.571V28.5H10.7216ZM39.2322 19.7727C39.2322 21.6534 38.88 23.2642 38.1754 24.6051C37.4766 25.9403 36.522 26.9631 35.3118 27.6733C34.1072 28.3835 32.7408 28.7386 31.2124 28.7386C29.6839 28.7386 28.3146 28.3835 27.1044 27.6733C25.8999 26.9574 24.9453 25.9318 24.2408 24.5966C23.5419 23.2557 23.1925 21.6477 23.1925 19.7727C23.1925 17.892 23.5419 16.2841 24.2408 14.9489C24.9453 13.608 25.8999 12.5824 27.1044 11.8722C28.3146 11.1619 29.6839 10.8068 31.2124 10.8068C32.7408 10.8068 34.1072 11.1619 35.3118 11.8722C36.522 12.5824 37.4766 13.608 38.1754 14.9489C38.88 16.2841 39.2322 17.892 39.2322 19.7727ZM36.0533 19.7727C36.0533 18.4489 35.8459 17.3324 35.4311 16.4233C35.022 15.5085 34.4538 14.8182 33.7266 14.3523C32.9993 13.8807 32.1612 13.6449 31.2124 13.6449C30.2635 13.6449 29.4254 13.8807 28.6982 14.3523C27.9709 14.8182 27.3999 15.5085 26.9851 16.4233C26.576 17.3324 26.3714 18.4489 26.3714 19.7727C26.3714 21.0966 26.576 22.2159 26.9851 23.1307C27.3999 24.0398 27.9709 24.7301 28.6982 25.2017C29.4254 25.6676 30.2635 25.9006 31.2124 25.9006C32.1612 25.9006 32.9993 25.6676 33.7266 25.2017C34.4538 24.7301 35.022 24.0398 35.4311 23.1307C35.8459 22.2159 36.0533 21.0966 36.0533 19.7727ZM53.9148 16.6193C53.7727 16.1591 53.5767 15.7472 53.3267 15.3835C53.0824 15.0142 52.7869 14.6989 52.4403 14.4375C52.0994 14.1761 51.7074 13.9801 51.2642 13.8494C50.821 13.7131 50.3381 13.6449 49.8153 13.6449C48.8778 13.6449 48.0426 13.8807 47.3097 14.3523C46.5767 14.8239 46 15.517 45.5795 16.4318C45.1648 17.3409 44.9574 18.4489 44.9574 19.7557C44.9574 21.0739 45.1648 22.1903 45.5795 23.1051C45.9943 24.0199 46.571 24.7159 47.3097 25.1932C48.0483 25.6648 48.9063 25.9006 49.8835 25.9006C50.7699 25.9006 51.5369 25.7301 52.1847 25.3892C52.8381 25.0483 53.3409 24.5653 53.6932 23.9403C54.0455 23.3097 54.2216 22.571 54.2216 21.7244L54.9375 21.8352H50.1989V19.3636H57.2812V21.4602C57.2812 22.9545 56.9631 24.2472 56.3267 25.3381C55.6903 26.429 54.8153 27.2699 53.7017 27.8608C52.5881 28.446 51.3097 28.7386 49.8665 28.7386C48.2585 28.7386 46.8466 28.3778 45.6307 27.6562C44.4205 26.929 43.4744 25.8977 42.7926 24.5625C42.1165 23.2216 41.7784 21.6307 41.7784 19.7898C41.7784 18.3807 41.9773 17.1222 42.375 16.0142C42.7784 14.9062 43.3409 13.9659 44.0625 13.1932C44.7841 12.4148 45.6307 11.8239 46.6023 11.4205C47.5739 11.0114 48.6307 10.8068 49.7727 10.8068C50.7386 10.8068 51.6392 10.9489 52.4744 11.233C53.3097 11.5114 54.0511 11.9091 54.6989 12.4261C55.3523 12.9432 55.8892 13.5568 56.3097 14.267C56.7301 14.9773 57.0057 15.7614 57.1364 16.6193H53.9148ZM75.9354 19.7727C75.9354 21.6534 75.5831 23.2642 74.8786 24.6051C74.1797 25.9403 73.2251 26.9631 72.0149 27.6733C70.8104 28.3835 69.4439 28.7386 67.9155 28.7386C66.3871 28.7386 65.0178 28.3835 63.8075 27.6733C62.603 26.9574 61.6484 25.9318 60.9439 24.5966C60.245 23.2557 59.8956 21.6477 59.8956 19.7727C59.8956 17.892 60.245 16.2841 60.9439 14.9489C61.6484 13.608 62.603 12.5824 63.8075 11.8722C65.0178 11.1619 66.3871 10.8068 67.9155 10.8068C69.4439 10.8068 70.8104 11.1619 72.0149 11.8722C73.2251 12.5824 74.1797 13.608 74.8786 14.9489C75.5831 16.2841 75.9354 17.892 75.9354 19.7727ZM72.7564 19.7727C72.7564 18.4489 72.549 17.3324 72.1342 16.4233C71.7251 15.5085 71.157 14.8182 70.4297 14.3523C69.7024 13.8807 68.8643 13.6449 67.9155 13.6449C66.9666 13.6449 66.1286 13.8807 65.4013 14.3523C64.674 14.8182 64.103 15.5085 63.6882 16.4233C63.2791 17.3324 63.0746 18.4489 63.0746 19.7727C63.0746 21.0966 63.2791 22.2159 63.6882 23.1307C64.103 24.0398 64.674 24.7301 65.4013 25.2017C66.1286 25.6676 66.9666 25.9006 67.9155 25.9006C68.8643 25.9006 69.7024 25.6676 70.4297 25.2017C71.157 24.7301 71.7251 24.0398 72.1342 23.1307C72.549 22.2159 72.7564 21.0966 72.7564 19.7727Z" fill="white"/>
<path d="M84.1108 13.696V11.0455H98.0369V13.696H92.642V28.5H89.5057V13.696H84.1108ZM99.5284 11.0455H103.099L107.369 18.767H107.54L111.81 11.0455H115.381L109.031 21.9886V28.5H105.878V21.9886L99.5284 11.0455ZM117.62 28.5V11.0455H124.165C125.506 11.0455 126.631 11.2955 127.54 11.7955C128.455 12.2955 129.146 12.983 129.612 13.858C130.083 14.7273 130.319 15.7159 130.319 16.8239C130.319 17.9432 130.083 18.9375 129.612 19.8068C129.14 20.6761 128.444 21.3608 127.523 21.8608C126.603 22.3551 125.469 22.6023 124.123 22.6023H119.785V20.0028H123.697C124.481 20.0028 125.123 19.8665 125.623 19.5938C126.123 19.321 126.492 18.946 126.731 18.4688C126.975 17.9915 127.097 17.4432 127.097 16.8239C127.097 16.2045 126.975 15.6591 126.731 15.1875C126.492 14.7159 126.12 14.3494 125.614 14.0881C125.114 13.821 124.469 13.6875 123.68 13.6875H120.782V28.5H117.62ZM133.065 28.5V11.0455H144.418V13.696H136.227V18.4347H143.83V21.0852H136.227V25.8494H144.486V28.5H133.065Z" fill="#060419"/>
<defs>
<linearGradient id="paint0_linear_132_384" x1="83" y1="0.499707" x2="-36.8878" y2="2.3457" gradientUnits="userSpaceOnUse">
<stop stop-color="#4D98FF"/>
<stop offset="1" stop-color="#0053CD"/>
</linearGradient>
</defs>
</svg>
