<svg width="20" height="20" viewBox="0 0 20 20" fill="none" xmlns="http://www.w3.org/2000/svg">
<path d="M19.237 4.177L15.823 0.762939C15.492 0.431939 15.053 0.25 14.586 0.25H9C6.932 0.25 5.25 1.932 5.25 4V4.25H4C1.932 4.25 0.25 5.932 0.25 8V16C0.25 18.068 1.932 19.75 4 19.75H11C13.068 19.75 14.75 18.068 14.75 16V15.75H16C18.068 15.75 19.75 14.068 19.75 12V5.41394C19.75 4.94694 19.568 4.507 19.237 4.177ZM15.75 2.81006L17.189 4.24902H16.812C16.227 4.24902 15.75 3.77201 15.75 3.18701V2.81006ZM13.25 16C13.25 17.241 12.241 18.25 11 18.25H4C2.759 18.25 1.75 17.241 1.75 16V8C1.75 6.759 2.759 5.75 4 5.75H5.25V12C5.25 14.068 6.932 15.75 9 15.75H13.25V16ZM16 14.25H9C7.759 14.25 6.75 13.241 6.75 12V4C6.75 2.759 7.759 1.75 9 1.75H14.25V3.18799C14.25 4.60099 15.399 5.75 16.812 5.75H18.25V12C18.25 13.24 17.241 14.25 16 14.25Z" fill="url(#paint0_linear_132_699)"/>
<defs>
<linearGradient id="paint0_linear_132_699" x1="19.75" y1="0.249853" x2="-8.42161" y2="0.453676" gradientUnits="userSpaceOnUse">
<stop stop-color="#4D98FF"/>
<stop offset="1" stop-color="#0053CD"/>
</linearGradient>
</defs>
</svg>
