<svg width="40" height="40" viewBox="0 0 40 40" fill="none" xmlns="http://www.w3.org/2000/svg">
<rect width="40" height="40" rx="8" fill="white" fill-opacity="0.6"/>
<path fill-rule="evenodd" clip-rule="evenodd" d="M11.8059 27.1291C12.1891 26.177 13.0275 24.0914 13.259 23.7126L22.6028 14.3687L24.5678 16.3355L15.242 25.6613C15.0234 25.7794 14.2158 26.14 11.8059 27.1291ZM26.4119 10.5582L23.6033 13.3667L25.5709 15.3335L28.3794 12.5249C28.7189 12.1839 28.7189 11.6291 28.3794 11.2881L27.649 10.5582C27.3069 10.2171 26.754 10.2171 26.4119 10.5582ZM29.3825 13.5269C29.812 13.0951 30.0512 12.52 30.0512 11.9063C30.0512 11.2929 29.812 10.7179 29.3825 10.286L28.652 9.55607C27.757 8.6623 26.3039 8.6623 25.4114 9.55607L12.22 22.7463C11.9962 22.9714 11.7107 23.5668 10.4736 26.6474C10.2755 27.1361 10.1058 27.5582 10.0338 27.7256C9.97981 27.8503 9.9515 27.9789 9.94892 28.1037V28.1075C9.94635 28.2361 9.9695 28.3606 10.0209 28.475C10.5019 30.0164 11.4612 30.6463 12.1917 30.9027C12.6134 31.0501 13.061 31.1141 13.5188 31.1141C15.9544 31.1141 18.7604 29.3076 19.9924 28.4197C22.1657 26.8524 24.2026 26.1469 25.1825 26.623C25.7072 26.8781 25.9927 27.5306 26.0364 28.5637C26.0518 28.9547 26.3836 29.2589 26.772 29.242C27.1629 29.226 27.469 28.8963 27.451 28.5051C27.3687 26.5193 26.5096 25.6927 25.8023 25.3486C24.9587 24.9399 23.8708 24.962 22.5668 25.415C21.52 25.7786 20.3421 26.42 19.1642 27.2706C16.5305 29.1689 14.0409 30.0483 12.6623 29.5653C12.238 29.4174 11.9088 29.1376 11.6618 28.7196C15.9338 26.9741 16.0418 26.8661 16.191 26.7169L29.3825 13.5269Z" fill="url(#paint0_linear_132_202)"/>
<defs>
<linearGradient id="paint0_linear_132_202" x1="30.0512" y1="8.88557" x2="1.00892" y2="9.0756" gradientUnits="userSpaceOnUse">
<stop stop-color="#4D98FF"/>
<stop offset="1" stop-color="#0053CD"/>
</linearGradient>
</defs>
</svg>
