<svg width="24" height="22" viewBox="0 0 24 22" fill="none" xmlns="http://www.w3.org/2000/svg">
<path d="M3.21264 14.8493H10.8034C12.5768 14.8471 14.0139 13.4101 14.016 11.6367V4.04585C14.0139 2.27246 12.5768 0.835408 10.8034 0.833252H3.21264C1.43926 0.835408 0.00215626 2.27246 0 4.04585V11.6366C0.00210939 13.4101 1.43921 14.8472 3.21264 14.8493ZM1.66534 4.04585C1.66632 3.19173 2.35848 2.49957 3.21264 2.49859H10.8034C11.6576 2.49957 12.3497 3.19173 12.3507 4.04585V11.6366C12.3498 12.4908 11.6576 13.183 10.8034 13.1839H3.21264C2.35853 13.183 1.66632 12.4909 1.66534 11.6367V4.04585ZM22.9789 9.20105L19.9416 7.52404C18.9855 6.9973 17.7834 7.34413 17.2547 8.29926L14.32 13.6141L10.8318 19.9315C10.6095 20.3341 10.7556 20.8407 11.1582 21.063C11.2814 21.131 11.4199 21.1667 11.5607 21.1667H11.562L18.1465 21.1561C18.2951 21.1559 18.4409 21.1159 18.5689 21.0402C18.6968 20.9646 18.8022 20.8561 18.874 20.7259L23.7541 11.888C24.2806 10.9318 23.9339 9.7298 22.9789 9.20105ZM17.6532 19.4916L12.9728 19.4991L15.3757 15.148L18.9593 17.1268L17.6532 19.4916ZM22.2963 11.083L19.764 15.6689L16.1805 13.6902L18.7127 9.1043C18.7527 9.03184 18.8198 8.97824 18.8994 8.95528C18.9789 8.93232 19.0643 8.94188 19.1368 8.98186L22.1739 10.6589C22.2463 10.699 22.2998 10.7662 22.3228 10.8457C22.3457 10.9252 22.3362 11.0106 22.2963 11.083H22.2963Z" fill="url(#paint0_linear_132_434)"/>
<path d="M3.53941 11.6822C3.95037 11.888 4.45034 11.7217 4.65612 11.3107L4.65654 11.3099L5.60647 9.41005H8.40956L9.35959 11.3099C9.5716 11.7179 10.0743 11.8769 10.4824 11.6648C10.8816 11.4574 11.0438 10.9704 10.8489 10.5651L7.75275 4.3726C7.54697 3.96136 7.04676 3.79477 6.63548 4.00055C6.47451 4.0811 6.34398 4.21163 6.26343 4.3726L3.16703 10.565C2.96139 10.9763 3.12808 11.4765 3.53941 11.6822ZM7.57692 7.74466H6.43916L7.00804 6.60691L7.57692 7.74466ZM8.58811 19.5013H0.832692C0.372799 19.5013 0 19.8741 0 20.334C0 20.7939 0.372799 21.1667 0.832692 21.1667H8.58811C9.04801 21.1667 9.4208 20.7939 9.4208 20.334C9.42076 19.8741 9.04796 19.5013 8.58811 19.5013Z" fill="url(#paint1_linear_132_434)"/>
<defs>
<linearGradient id="paint0_linear_132_434" x1="24" y1="0.833099" x2="-10.672" y2="1.12919" gradientUnits="userSpaceOnUse">
<stop stop-color="#4D98FF"/>
<stop offset="1" stop-color="#0053CD"/>
</linearGradient>
<linearGradient id="paint1_linear_132_434" x1="10.9313" y1="3.91222" x2="-4.86162" y2="3.98461" gradientUnits="userSpaceOnUse">
<stop stop-color="#4D98FF"/>
<stop offset="1" stop-color="#0053CD"/>
</linearGradient>
</defs>
</svg>
